<svg xmlns="http://www.w3.org/2000/svg" viewBox="0 0 64 64" width="64" height="64" role="img" aria-label="Nexus mark / favicon">
  <defs>
    <linearGradient id="nexusGradM" x1="0" y1="0" x2="1" y2="1">
      <stop offset="0" stop-color="#3B5BFF"/>
      <stop offset="1" stop-color="#6E44FF"/>
    </linearGradient>
  </defs>
  <rect width="64" height="64" rx="14" fill="#0B1020"/>
  <g transform="translate(32,32)" fill="none" stroke="url(#nexusGradM)" stroke-width="2.6" stroke-linecap="round">
    <polygon points="17,0 8.5,14.72 -8.5,14.72 -17,0 -8.5,-14.72 8.5,-14.72" opacity="0.6"/>
    <line x1="0" y1="0" x2="17" y2="0"/>
    <line x1="0" y1="0" x2="8.5" y2="14.72"/>
    <line x1="0" y1="0" x2="-8.5" y2="14.72"/>
    <line x1="0" y1="0" x2="-17" y2="0"/>
    <line x1="0" y1="0" x2="-8.5" y2="-14.72"/>
    <line x1="0" y1="0" x2="8.5" y2="-14.72"/>
  </g>
  <g transform="translate(32,32)" fill="url(#nexusGradM)">
    <circle cx="17" cy="0" r="2.8"/>
    <circle cx="8.5" cy="14.72" r="2.8"/>
    <circle cx="-8.5" cy="14.72" r="2.8"/>
    <circle cx="-17" cy="0" r="2.8"/>
    <circle cx="-8.5" cy="-14.72" r="2.8"/>
    <circle cx="8.5" cy="-14.72" r="2.8"/>
    <circle cx="0" cy="0" r="4.8" fill="#fff"/>
  </g>
</svg>
