<svg xmlns="http://www.w3.org/2000/svg" viewBox="0 0 300 96" width="300" height="96" role="img" aria-label="Concept 3 — Convergence: Orgofin">
  <defs>
    <linearGradient id="convGrad" x1="0" y1="0" x2="1" y2="0">
      <stop offset="0" stop-color="#3B5BFF" stop-opacity="0.45"/>
      <stop offset="1" stop-color="#6E44FF"/>
    </linearGradient>
  </defs>
  <!-- Mark: fragmented inputs (many tools) converging into one unified node -->
  <g transform="translate(46,48)" fill="none" stroke="url(#convGrad)" stroke-width="2.4" stroke-linecap="round">
    <path d="M-20,-20 C -4,-20 4,-4 18,0"/>
    <path d="M-22,-10 C -6,-10 4,-3 18,0"/>
    <path d="M-24,0 L 18,0"/>
    <path d="M-22,10 C -6,10 4,3 18,0"/>
    <path d="M-20,20 C -4,20 4,4 18,0"/>
  </g>
  <g transform="translate(46,48)" fill="#6E44FF">
    <circle cx="-20" cy="-20" r="2.6" opacity="0.5"/>
    <circle cx="-22" cy="-10" r="2.6" opacity="0.5"/>
    <circle cx="-24" cy="0" r="2.6" opacity="0.5"/>
    <circle cx="-22" cy="10" r="2.6" opacity="0.5"/>
    <circle cx="-20" cy="20" r="2.6" opacity="0.5"/>
    <circle cx="18" cy="0" r="6" fill="#3B5BFF"/>
  </g>
  <text x="92" y="58" font-family="Geist, 'Segoe UI', system-ui, sans-serif" font-size="34" font-weight="600" letter-spacing="-1" fill="#0B1020">Orgofin</text>
</svg>
